<?xml version="1.0" encoding="UTF-8" standalone="no"?>
<svg
   id="svg146"
   version="1.1"
   height="174.10602"
   width="221.8717"
   sodipodi:docname="SI only fixed paths.svg"
   inkscape:version="1.3.2 (091e20e, 2023-11-25, custom)"
   xmlns:inkscape="http://www.inkscape.org/namespaces/inkscape"
   xmlns:sodipodi="http://sodipodi.sourceforge.net/DTD/sodipodi-0.dtd"
   xmlns:xlink="http://www.w3.org/1999/xlink"
   xmlns="http://www.w3.org/2000/svg"
   xmlns:svg="http://www.w3.org/2000/svg"
   xmlns:rdf="http://www.w3.org/1999/02/22-rdf-syntax-ns#"
   xmlns:cc="http://creativecommons.org/ns#"
   xmlns:dc="http://purl.org/dc/elements/1.1/">
  <sodipodi:namedview
     pagecolor="#ffffff"
     bordercolor="#666666"
     borderopacity="1"
     objecttolerance="10"
     gridtolerance="10"
     guidetolerance="10"
     inkscape:pageopacity="0"
     inkscape:pageshadow="2"
     inkscape:window-width="5120"
     inkscape:window-height="1377"
     id="namedview97"
     showgrid="false"
     inkscape:pagecheckerboard="true"
     inkscape:zoom="2.9789306"
     inkscape:cx="69.99156"
     inkscape:cy="124.70918"
     inkscape:window-x="-8"
     inkscape:window-y="-8"
     inkscape:window-maximized="1"
     inkscape:current-layer="svg146"
     inkscape:showpageshadow="0"
     inkscape:deskcolor="#505050" />
  <metadata
     id="metadata150">
    <rdf:RDF>
      <cc:Work
         rdf:about="">
        <dc:format>image/svg+xml</dc:format>
        <dc:type
           rdf:resource="http://purl.org/dc/dcmitype/StillImage" />
      </cc:Work>
    </rdf:RDF>
  </metadata>
  <defs
     id="defs14">
    <marker
       orient="auto"
       markerHeight="6"
       markerWidth="8"
       markerUnits="strokeWidth"
       refY="5"
       refX="5"
       viewBox="0 0 10 10"
       id="ArrowFillLeft">
      <path
         id="path2"
         d="M 10,0 0,5 10,10 Z" />
    </marker>
    <marker
       orient="auto"
       markerHeight="6"
       markerWidth="8"
       markerUnits="strokeWidth"
       refY="5"
       refX="8"
       viewBox="0 0 10 10"
       id="ArrowFillRight">
      <path
         id="path5"
         d="M 0,0 10,5 0,10 Z" />
    </marker>
    <marker
       orient="auto"
       markerHeight="6"
       markerWidth="8"
       markerUnits="strokeWidth"
       refY="5"
       refX="8"
       viewBox="0 0 10 10"
       id="ArrowStrokeRight">
      <path
         id="path8"
         d="M 0,0 10,5 0,10 -1,8.8 7,5 -1,1.2 Z" />
    </marker>
    <marker
       orient="auto"
       markerHeight="6"
       markerWidth="8"
       markerUnits="strokeWidth"
       refY="5"
       refX="2"
       viewBox="0 0 10 10"
       id="ArrowStrokeLeft">
      <path
         id="path11"
         d="M 10,0 11,1.2 3,5 11,8.8 10,10 0,5 Z" />
    </marker>
    <linearGradient
       y2="560.52393"
       x2="1007.1901"
       y1="560.10156"
       x1="675.42554"
       gradientUnits="userSpaceOnUse"
       id="linearGradient4676"
       xlink:href="#linearGradient4694"
       gradientTransform="translate(-474.41144,510.39166)" />
    <linearGradient
       id="linearGradient4694">
      <stop
         style="stop-color:#ffffff;stop-opacity:1"
         offset="0"
         id="stop4678" />
      <stop
         id="stop4680"
         offset="0.02271962"
         style="stop-color:#8b00ff;stop-opacity:1" />
      <stop
         id="stop4682"
         offset="0.24728571"
         style="stop-color:#0000ff;stop-opacity:1" />
      <stop
         style="stop-color:#00ff00;stop-opacity:1"
         offset="0.37093526"
         id="stop4684" />
      <stop
         id="stop4686"
         offset="0.58404785"
         style="stop-color:#ffff00;stop-opacity:1" />
      <stop
         style="stop-color:#ff7f00;stop-opacity:1"
         offset="0.75553769"
         id="stop4688" />
      <stop
         id="stop4690"
         offset="0.88199246"
         style="stop-color:#ff0000;stop-opacity:0.91534394" />
      <stop
         style="stop-color:#ff0000;stop-opacity:0.95767194"
         offset="1"
         id="stop4692" />
    </linearGradient>
  </defs>
  <path
     style="display:inline;fill:#ffffff;fill-opacity:1;stroke-width:0.178515"
     d="m 197.60253,139.95567 c -4.6824,-1.2513 -8.67295,-5.60764 -11.86173,-12.94903 -2.36827,-5.45235 -3.82922,-11.35291 -4.70163,-18.98921 -0.2684,-2.34928 -0.32631,-4.26624 -0.32631,-10.800179 0,-8.039514 0.10194,-10.152835 0.82244,-17.048227 0.68604,-6.565709 1.60716,-12.971376 3.98536,-27.715088 0.63748,-3.952198 1.44519,-9.454935 1.7949,-12.228307 0.78031,-6.18851 1.06427,-7.808158 1.72686,-9.849742 0.70239,-2.164231 1.4021,-3.318834 3.05403,-5.039524 2.82548,-2.943088 5.86186,-4.546041 8.61125,-4.546041 3.0491,0 4.38124,2.363886 3.12632,5.547639 -0.51101,1.296406 -1.53728,2.935025 -2.49357,3.981351 -1.03189,1.12906 -2.39131,1.893277 -4.38268,2.463796 -2.93672,0.841352 -3.97267,1.499844 -5.09749,3.240161 -0.64802,1.002598 -1.33933,3.033289 -1.21385,3.565556 0.0525,0.222401 0.44606,0.14769 2.29473,-0.435544 3.85184,-1.21521 5.74785,-0.979375 6.27514,0.780528 0.23787,0.793927 0.14562,1.290508 -0.89387,4.812056 -2.84467,9.637161 -6.39853,31.962945 -6.98851,43.902646 -0.23848,4.826186 -0.23688,18.126689 0.003,22.403699 0.83299,14.87199 3.5675,24.02583 7.83665,26.23352 0.97766,0.50556 1.23376,1.70126 0.50688,2.36657 -0.5812,0.53196 -0.99572,0.59249 -2.0776,0.30337 z"
     id="path2171"
     inkscape:connector-curvature="0" />
  <path
     id="path2096"
     d="m 1.6074282,173.62445 c -1.46147711,-0.8912 -2.06018076,-3.2515 -1.23133985,-4.8544 1.26850735,-2.453 12.19140865,-6.9421 27.53630565,-11.3168 4.355117,-1.2415 11.817761,-3.1981 26.15838,-6.8582 18.88304,-4.8193 30.174501,-8.0146 40.311697,-11.4074 26.851659,-8.9871 43.926549,-18.9699 52.880399,-30.9163 3.48509,-4.6498 5.67094,-9.5652 6.85973,-15.4255 2.72623,-13.4395 -0.53031,-20.7915 -10.2035,-23.0356 -2.73835,-0.6354 -9.24543,-0.6347 -13.09875,0 -8.5588,1.4124 -15.55115,3.8089 -26.83915,9.1985 -10.069589,4.808 -13.994744,5.9559 -17.417556,5.094 -3.422281,-0.8617 -4.750986,-4.6163 -2.975973,-8.4094 1.561468,-3.3368 3.95758,-6.3549 9.630022,-12.1294 23.604777,-24.0298 65.380047,-46.33553 112.243087,-59.93179 2.71061,-0.78643 6.48514,-1.93361 8.38784,-2.54934 3.84677,-1.24488997 5.17232,-1.37118997 6.40378,-0.61010997 2.02415,1.25104997 2.18528,4.74412997 0.2877,6.23678997 -0.35842,0.2819 -2.04975,0.87838 -3.75851,1.3254 -6.07564,1.58958 -17.85199,5.97764 -28.38062,10.5751 -28.12529,12.28117 -59.48746,30.73809 -76.45322,44.99335 -3.0516,2.564 -4.04036,3.5882 -3.46393,3.5882 0.23194,0 2.44256,-0.726 4.91249,-1.6135 13.33122,-4.79 23.02593,-6.8055 32.79743,-6.8183 6.83146,-0.01 10.71862,0.7401 15.02591,2.8959 7.25265,3.6301 10.92934,9.9506 11.30637,19.4365 0.31808,8.0028 -1.70121,16.8783 -5.40414,23.7536 -9.75257,18.1073 -32.01154,31.9515 -69.264975,43.0801 -11.654768,3.4815 -22.512973,6.2419 -44.797086,11.3879 -21.364714,4.9338 -31.086788,7.4544 -37.08179,9.6144 -2.245866,0.8093 -7.7275611,3.3832 -9.923518,4.6597 -1.1630712,0.676 -3.3675956,0.6936 -4.4470828,0.035 z"
     style="display:inline;fill:#ffffff;fill-opacity:0.995327;stroke:none;stroke-width:0.252738;stroke-opacity:1"
     inkscape:connector-curvature="0" />
</svg>
